<svg xmlns="http://www.w3.org/2000/svg" width="512" height="512" viewBox="0 0 512 512"><defs><style>.a{fill:#ff1c1c;}.b{fill:none;}</style></defs><path class="a" d="M256,175.31a80.83,80.83,0,0,1,78.29,61.15H461.44C451.56,131.8,363.2,49.63,256,49.63S60.44,131.8,50.56,236.46H177.71A80.83,80.83,0,0,1,256,175.31Z"/><path class="b" d="M177.71,236.46a80.69,80.69,0,0,1,156.58,0H461.44C451.56,131.8,363.2,49.63,256,49.63S60.44,131.8,50.56,236.46Z"/><path class="b" d="M334.29,275.54a80.69,80.69,0,0,1-156.58,0H50.56C60.44,380.2,148.8,462.37,256,462.37S451.56,380.2,461.44,275.54Z"/><path class="b" d="M256,214.39a41.63,41.63,0,1,0,36.73,22.07A41.65,41.65,0,0,0,256,214.39Z"/><path d="M429.56,82.44A245.45,245.45,0,0,0,82.44,429.56,245.45,245.45,0,0,0,429.56,82.44ZM256,462.37c-107.2,0-195.56-82.17-205.44-186.83H177.71a80.69,80.69,0,0,0,156.58,0H461.44C451.56,380.2,363.2,462.37,256,462.37Zm0-412.74c107.2,0,195.56,82.17,205.44,186.83H334.29a80.69,80.69,0,0,0-156.58,0H50.56C60.44,131.8,148.8,49.63,256,49.63ZM297.61,256a41.63,41.63,0,1,1-4.88-19.54A41.39,41.39,0,0,1,297.61,256Z"/></svg>